<svg width="20" height="20" viewBox="0 0 20 20" fill="none" xmlns="http://www.w3.org/2000/svg">
<g clip-path="url(#clip0_22_191)">
<path d="M1.66669 7.49999V5.41666C1.66669 3.34166 3.34169 1.66666 5.41669 1.66666H7.50002" stroke="#1E313A" stroke-width="1.5" stroke-linecap="round" stroke-linejoin="round"/>
<path d="M12.5 1.66666H14.5833C16.6583 1.66666 18.3333 3.34166 18.3333 5.41666V7.49999" stroke="#1E313A" stroke-width="1.5" stroke-linecap="round" stroke-linejoin="round"/>
<path d="M18.3334 13.3333V14.5833C18.3334 16.6583 16.6584 18.3333 14.5834 18.3333H13.3334" stroke="#1E313A" stroke-width="1.5" stroke-linecap="round" stroke-linejoin="round"/>
<path d="M7.50002 18.3333H5.41669C3.34169 18.3333 1.66669 16.6583 1.66669 14.5833V12.5" stroke="#1E313A" stroke-width="1.5" stroke-linecap="round" stroke-linejoin="round"/>
<path d="M8.75004 5.83331V7.49998C8.75004 8.33331 8.33337 8.74998 7.50004 8.74998H5.83337C5.00004 8.74998 4.58337 8.33331 4.58337 7.49998V5.83331C4.58337 4.99998 5.00004 4.58331 5.83337 4.58331H7.50004C8.33337 4.58331 8.75004 4.99998 8.75004 5.83331Z" stroke="#1E313A" stroke-width="1.5" stroke-linecap="round" stroke-linejoin="round"/>
<path d="M15.4167 5.83331V7.49998C15.4167 8.33331 15 8.74998 14.1667 8.74998H12.5C11.6667 8.74998 11.25 8.33331 11.25 7.49998V5.83331C11.25 4.99998 11.6667 4.58331 12.5 4.58331H14.1667C15 4.58331 15.4167 4.99998 15.4167 5.83331Z" stroke="#1E313A" stroke-width="1.5" stroke-linecap="round" stroke-linejoin="round"/>
<path d="M8.75004 12.5V14.1667C8.75004 15 8.33337 15.4167 7.50004 15.4167H5.83337C5.00004 15.4167 4.58337 15 4.58337 14.1667V12.5C4.58337 11.6667 5.00004 11.25 5.83337 11.25H7.50004C8.33337 11.25 8.75004 11.6667 8.75004 12.5Z" stroke="#1E313A" stroke-width="1.5" stroke-linecap="round" stroke-linejoin="round"/>
<path d="M15.4167 12.5V14.1667C15.4167 15 15 15.4167 14.1667 15.4167H12.5C11.6667 15.4167 11.25 15 11.25 14.1667V12.5C11.25 11.6667 11.6667 11.25 12.5 11.25H14.1667C15 11.25 15.4167 11.6667 15.4167 12.5Z" stroke="#1E313A" stroke-width="1.5" stroke-linecap="round" stroke-linejoin="round"/>
</g>
<defs>
<clipPath id="clip0_22_191">
<rect width="20" height="20" fill="white"/>
</clipPath>
</defs>
</svg>
