<svg width="20" height="20" viewBox="0 0 20 20" fill="none" xmlns="http://www.w3.org/2000/svg">
<path d="M14.3883 8.51289C15.2767 8.5217 16.1263 8.87853 16.7545 9.50678C17.3828 10.135 17.7396 10.9846 17.7485 11.873C17.7597 12.7501 17.3951 13.5883 16.802 14.2109C16.1621 14.8825 15.2982 15.2215 14.3883 15.2332C13.0562 15.2503 13.0546 17.3175 14.3883 17.3004C17.3698 17.262 19.7773 14.8545 19.8157 11.873C19.854 8.89127 17.312 6.48322 14.3883 6.44566C13.0546 6.42852 13.0562 8.49576 14.3883 8.51289ZM5.57151 15.2208C4.68306 15.212 3.83349 14.8552 3.20523 14.2269C2.57697 13.5987 2.22012 12.7491 2.21131 11.8607C2.20004 10.9835 2.56463 10.1454 3.15782 9.52268C3.79764 8.85107 4.66149 8.51219 5.57149 8.50047C6.90352 8.48334 6.90516 6.41607 5.57149 6.43324C2.58992 6.47156 0.182425 8.87904 0.144104 11.8607C0.105784 14.8424 2.64774 17.2505 5.57151 17.288C6.90518 17.3052 6.90354 15.2379 5.57151 15.2208Z" fill="#4A5699"/>
<path d="M6.63433 7.50398C6.6431 6.61555 6.99993 5.76598 7.62818 5.13773C8.25642 4.50947 9.10599 4.15264 9.99443 4.14387C10.8715 4.1326 11.7097 4.49723 12.3323 5.09039C13.0039 5.73022 13.3429 6.594 13.3546 7.50398C13.3717 8.836 15.439 8.83766 15.4219 7.50398C15.3835 4.52248 12.9759 2.11498 9.99443 2.07666C7.01271 2.03834 4.6047 4.58022 4.56712 7.50398C4.54994 8.83766 6.6172 8.836 6.63433 7.50398Z" fill="#C45FA0"/>
<path d="M10.6453 9.23981C10.9684 9.5629 10.9684 10.0866 10.6453 10.4097L8.2451 12.8099C7.92202 13.133 7.39829 13.133 7.07526 12.8099C6.75218 12.4868 6.75218 11.963 7.07526 11.64L9.4755 9.23981C9.79848 8.91673 10.3223 8.91673 10.6453 9.23981Z" fill="#F39A2B"/>
<path d="M9.47597 9.2398C9.79896 8.91677 10.3227 8.91677 10.6457 9.2398L13.046 11.6401C13.3691 11.963 13.3691 12.4869 13.046 12.81C12.723 13.133 12.1992 13.133 11.8762 12.81L9.47597 10.4097C9.15279 10.0866 9.15279 9.56288 9.47597 9.2398Z" fill="#F39A2B"/>
<path d="M10.0399 12.3847C10.5081 12.3847 10.8876 12.7643 10.8876 13.2323V16.7106C10.8876 17.1787 10.5081 17.5582 10.0399 17.5582C9.57185 17.5582 9.19232 17.1787 9.19232 16.7106V13.2323C9.19234 12.7642 9.57187 12.3847 10.0399 12.3847Z" fill="#E5594F"/>
</svg>
